<svg id="Capa_1" enable-background="new 0 0 512 512" height="512" viewBox="0 0 512 512" width="512" xmlns="http://www.w3.org/2000/svg"><g><path d="m512 256c0 141.38-114.62 256-256 256-13.39 0-26.55-1.03-39.39-3.01-62.84-9.71-77.164-130.132-116.154-176.782-23.48-28.1-82.026 26.562-91.766-9.848-5.67-21.17-8.69-43.41-8.69-66.36 0-141.38 114.62-256 256-256s256 114.62 256 256z" fill="#dd5790"/><path d="m266.311 447.268h192.079c18.667 0 33.8-15.133 33.8-33.8v-357.388c0-18.667-15.133-33.8-33.8-33.8h-192.079c-18.667 0-33.8 15.133-33.8 33.8v357.388c0 18.667 15.133 33.8 33.8 33.8z" fill="#21386b"/><path d="m243.033 447.268h192.078c18.667 0 33.8-15.133 33.8-33.8v-357.388c0-18.667-15.133-33.8-33.8-33.8h-192.078c-18.667 0-33.8 15.133-33.8 33.8v357.388c.001 18.667 15.133 33.8 33.8 33.8z" fill="#26457d"/><path d="m369.666 60.19h-61.188c-5.142 0-9.311-4.169-9.311-9.311 0-5.142 4.169-9.311 9.311-9.311h61.188c5.142 0 9.311 4.169 9.311 9.311 0 5.142-4.168 9.311-9.311 9.311z" fill="#21386b"/><path d="m448.91 56.08v357.39c0 7.61-6.19 13.8-13.8 13.8h-192.08c-7.61 0-13.8-6.19-13.8-13.8v-357.39c0-7.61 6.19-13.8 13.8-13.8h20.74v.96c0 19.84 16.08 35.92 35.92 35.92h78.76c19.84 0 35.92-16.08 35.92-35.92v-.96h20.74c7.61 0 13.8 6.19 13.8 13.8z" fill="#9dc6fb"/><g><path d="m139.619 103.193h-53.939c-7.985 0-14.459 6.473-14.459 14.459v101.658c0 7.985 6.473 14.459 14.459 14.459h53.939c7.985 0 14.459-6.473 14.459-14.459v-101.659c-.001-7.985-6.474-14.458-14.459-14.458z" fill="#f9f6f6"/><path d="m105.921 233.766h-20.242c-7.984 0-14.458-6.475-14.458-14.458v-101.657c0-7.988 6.475-14.458 14.458-14.458h20.242c-7.984 0-14.458 6.47-14.458 14.458v101.656c0 7.984 6.474 14.459 14.458 14.459z" fill="#dddaec"/><path d="m156.117 188.93h-86.936c-12.87 0-23.304 10.434-23.304 23.304v163.846c0 12.87 10.434 23.304 23.304 23.304h86.937c12.87 0 23.304-10.434 23.304-23.304v-163.846c-.001-12.871-10.434-23.304-23.305-23.304z" fill="#78c2a4"/><path d="m101.805 399.382h-32.625c-12.868 0-23.303-10.436-23.303-23.303v-163.845c0-12.875 10.436-23.303 23.303-23.303h32.625c-12.868 0-23.303 10.429-23.303 23.303v163.845c0 12.867 10.435 23.303 23.303 23.303z" fill="#66b394"/><path d="m216.61 257.09v251.9c-100.68-15.55-182-89.77-207.92-186.63v-65.27c0-20.04 16.25-36.28 36.28-36.28h135.35c20.04 0 36.29 16.24 36.29 36.28z" fill="#f9f6f6"/><path d="m95.77 220.81c-20.04 0-36.29 16.24-36.29 36.28v162.98c-23.48-28.1-41.05-61.3-50.79-97.71v-65.27c0-20.04 16.25-36.28 36.28-36.28z" fill="#dddaec"/><path d="m126.256 172.912c-7.214 0-13.063-5.848-13.063-13.063v-33.382c0-7.214 5.848-13.063 13.063-13.063 7.214 0 13.063 5.848 13.063 13.063v33.382c0 7.215-5.849 13.063-13.063 13.063z" fill="#21386b"/></g><g fill="#e4f6ff"><g><path d="m205.304 193.784.856-1.482c3.018-5.228 9.569-7.226 14.991-4.572l16.678 8.162c5.974 2.923 8.222 10.295 4.897 16.055l-2.126 3.683c-3.325 5.76-10.833 7.498-16.352 3.787l-15.407-10.363c-5.01-3.37-6.555-10.042-3.537-15.27z"/><path d="m220.455 147.567v-1.712c0-6.037 4.674-11.042 10.697-11.455l18.525-1.271c6.635-.455 12.268 4.805 12.268 11.455v4.253c0 6.651-5.633 11.911-12.268 11.455l-18.525-1.271c-6.023-.411-10.697-5.417-10.697-11.454z"/><path d="m206.16 101.121-.856-1.482c-3.018-5.228-1.473-11.9 3.536-15.269l15.407-10.363c5.519-3.712 13.027-1.973 16.352 3.787l2.126 3.683c3.325 5.76 1.077 13.131-4.897 16.055l-16.678 8.162c-5.421 2.653-11.972.655-14.99-4.573z"/></g><path d="m424.493 350.981c-7.987-7.987-20.936-7.987-28.923 0l27.269-27.269c7.987-7.987 7.987-20.936 0-28.922-7.987-7.987-20.936-7.987-28.922 0l28.983-28.983c7.987-7.987 7.987-20.936 0-28.922-7.987-7.987-20.936-7.987-28.922 0l-15.712 15.712c7.987-7.987 7.987-20.936 0-28.922-7.987-7.987-20.936-7.987-28.922 0l-98.054 98.054c-7.987 7.987-7.987 20.936 0 28.922 7.987 7.987 20.936 7.987 28.922 0l-15.712 15.712c-7.987 7.987-7.987 20.936 0 28.922 7.987 7.987 20.936 7.987 28.922 0l28.983-28.983c-7.987 7.987-7.987 20.936 0 28.922s20.936 7.987 28.922 0l27.269-27.269c-7.987 7.987-7.987 20.936 0 28.923 7.987 7.987 20.936 7.987 28.923 0l16.974-16.974c7.986-7.987 7.986-20.936 0-28.923z"/><path d="m272.12 218.591-22.574 22.574c-7.208 7.208-7.208 18.893 0 26.101 7.208 7.208 18.893 7.208 26.101 0l22.574-22.574c7.208-7.208 7.208-18.893 0-26.101-7.208-7.207-18.894-7.207-26.101 0z"/><path d="m414.852 101.96c-7.208-7.208-18.893-7.208-26.101 0l-20.683 20.683c7.208-7.208 7.208-18.893 0-26.101-7.208-7.208-18.893-7.208-26.101 0l-62.084 62.084c-7.208 7.208-7.208 18.893 0 26.101 7.208 7.208 18.893 7.208 26.101 0l20.683-20.683c-7.208 7.208-7.208 18.893 0 26.101 7.208 7.208 18.893 7.208 26.101 0l62.084-62.084c7.207-7.207 7.207-18.893 0-26.101z"/></g></g></svg>