<svg id="Capa_1" enable-background="new 0 0 512 512" height="512" viewBox="0 0 512 512" width="512" xmlns="http://www.w3.org/2000/svg"><g><circle cx="256" cy="256" fill="#ffe07d" r="256"/><path d="m489.714 242.039c22.018-15.515 28.954-45.544 15.225-69.322-13.729-23.779-43.203-32.786-67.648-21.475-2.427-26.825-24.965-47.847-52.422-47.847-27.458 0-49.995 21.022-52.422 47.847-24.445-11.31-53.919-2.304-67.648 21.475-13.729 23.779-6.792 53.808 15.226 69.322-22.018 15.515-28.954 45.544-15.226 69.322 13.729 23.779 43.203 32.786 67.648 21.476 2.427 26.825 24.965 47.847 52.422 47.847 27.458 0 49.995-21.022 52.422-47.847 24.445 11.31 53.919 2.303 67.648-21.476 13.73-23.778 6.793-53.807-15.225-69.322z" fill="#b3e59f"/><g><path d="m268.794 50.897c-31.748 0-59.378 17.593-73.699 43.556-14.321-25.963-41.951-43.556-73.699-43.556-46.459 0-84.121 37.662-84.121 84.121v86.032c0 77.884 63.137 141.021 141.021 141.021h33.599c77.884 0 141.021-63.137 141.021-141.021v-86.032c-.001-46.459-37.663-84.121-84.122-84.121z" fill="#dd5790"/><path d="m268.794 50.897c-31.748 0-59.378 17.593-73.699 43.556-14.321-25.963-41.951-43.556-73.699-43.556-46.459 0-84.121 37.662-84.121 84.121v86.032c0 77.884 63.137 141.021 141.021 141.021h33.599c77.884 0 141.021-63.137 141.021-141.021v-86.032c-.001-46.459-37.663-84.121-84.122-84.121z" fill="#dd5790"/><path d="m228.845 361.064c-5.563.66-11.216 1.008-16.958 1.008h-33.602c-77.882 0-141.012-63.13-141.012-141.023v-86.031c0-23.226 9.414-44.258 24.636-59.48 15.223-15.223 36.255-24.636 59.48-24.636 11.999 0 23.416 2.518 33.747 7.052-9.66 4.231-18.379 10.231-25.733 17.585-15.223 15.223-24.636 36.255-24.636 59.48v86.031c.002 72.161 54.188 131.642 124.078 140.014z" fill="#9d549b"/><path d="m252.416 58.341h-23.797l11.898-20.609c5.345-9.258 2.173-21.095-7.085-26.44-9.258-5.345-21.095-2.173-26.44 7.085l-11.899 20.609-11.899-20.609c-5.345-9.257-17.182-12.429-26.44-7.085s-12.429 17.182-7.085 26.44l11.898 20.609h-23.797c-10.69 0-19.355 8.666-19.355 19.355 0 10.69 8.666 19.355 19.355 19.355h23.797l-11.898 20.609c-5.345 9.258-2.173 21.095 7.085 26.44s21.095 2.173 26.44-7.085l11.899-20.609 11.899 20.609c5.345 9.257 17.182 12.429 26.44 7.085 9.258-5.345 12.429-17.182 7.085-26.44l-11.898-20.609h23.797c10.69 0 19.355-8.666 19.355-19.355.001-10.689-8.665-19.355-19.355-19.355z" fill="#78c2a4"/><circle cx="195.095" cy="77.697" fill="#66b394" r="20.1"/><path d="m315.746 207.61c-8.326 0-15.075-6.749-15.075-15.075v-77.049c0-8.326 6.749-15.075 15.075-15.075 8.326 0 15.075 6.749 15.075 15.075v77.049c0 8.325-6.75 15.075-15.075 15.075z" fill="#e48e81"/></g><path d="m425.894 296.003c-90.712 12.315-182.675 12.315-273.386 0-39.382-5.346-76.143 20.864-84.202 59.782-.104.5-.207 1-.311 1.5-8.93 43.12 20.645 84.631 64.282 90.541 104.139 14.104 209.709 14.104 313.848 0 43.636-5.91 73.212-47.422 64.282-90.541-.104-.5-.207-1-.311-1.5-8.06-38.918-44.82-65.128-84.202-59.782z" fill="#78c2a4"/><path d="m507.677 397.846c-9.17 25.88-32.18 46.01-61.56 49.98-104.14 14.11-209.71 14.11-313.84 0-43.64-5.9-73.22-47.42-64.29-90.54.11-.5.21-1 .31-1.5 6.63-31.99 32.66-55.4 63.6-59.73-1.12 3.18-2.04 6.47-2.74 9.85-.1.5-.21 1-.31 1.5-8.93 43.12 20.64 84.63 64.28 90.54 104.14 14.11 209.71 14.11 313.85 0 .23-.03.47-.06.7-.1z" fill="#66b394"/><g><path d="m235.997 388.185c-4.143 0-7.5-3.358-7.5-7.5 0-9.985-8.123-18.109-18.108-18.109s-18.109 8.124-18.109 18.109c0 4.142-3.357 7.5-7.5 7.5s-7.5-3.358-7.5-7.5c0-18.256 14.853-33.109 33.109-33.109s33.108 14.853 33.108 33.109c0 4.142-3.357 7.5-7.5 7.5z" fill="#66b394"/></g><g><path d="m311.816 351.282c-4.143 0-7.5-3.358-7.5-7.5 0-9.985-8.123-18.109-18.108-18.109s-18.109 8.124-18.109 18.109c0 4.142-3.357 7.5-7.5 7.5s-7.5-3.358-7.5-7.5c0-18.256 14.853-33.109 33.109-33.109s33.108 14.853 33.108 33.109c0 4.142-3.357 7.5-7.5 7.5z" fill="#66b394"/></g><g><path d="m357.223 379.215c-4.143 0-7.5-3.358-7.5-7.5 0-3.801-3.092-6.893-6.893-6.893s-6.893 3.092-6.893 6.893c0 4.142-3.357 7.5-7.5 7.5s-7.5-3.358-7.5-7.5c0-12.072 9.821-21.893 21.893-21.893s21.893 9.821 21.893 21.893c0 4.142-3.358 7.5-7.5 7.5z" fill="#66b394"/></g><g><path d="m452.481 347.291c-4.143 0-7.5-3.358-7.5-7.5 0-7.524-6.122-13.646-13.646-13.646s-13.646 6.122-13.646 13.646c0 4.142-3.357 7.5-7.5 7.5s-7.5-3.358-7.5-7.5c0-15.795 12.851-28.646 28.646-28.646 15.796 0 28.646 12.851 28.646 28.646 0 4.142-3.357 7.5-7.5 7.5z" fill="#66b394"/></g><g><path d="m187.122 319.358c-4.143 0-7.5-3.358-7.5-7.5 0-3.801-3.092-6.893-6.893-6.893s-6.893 3.092-6.893 6.893c0 4.142-3.357 7.5-7.5 7.5s-7.5-3.358-7.5-7.5c0-12.072 9.821-21.893 21.893-21.893s21.893 9.821 21.893 21.893c0 4.142-3.357 7.5-7.5 7.5z" fill="#66b394"/></g><path d="m80.885 370.284h-28.45c-15.688 0-28.45-12.763-28.45-28.45s12.763-28.45 28.45-28.45 28.45 12.763 28.45 28.45zm-28.45-41.9c-7.416 0-13.45 6.034-13.45 13.45s6.034 13.45 13.45 13.45h13.45v-13.45c0-7.417-6.034-13.45-13.45-13.45z" fill="#66b394"/><path d="m466.634 276.094-87.894-2.17 75.234-63.064c3.174-2.661 3.59-7.391.93-10.565-2.661-3.175-7.392-3.591-10.566-.93l-73.34 61.476 20.29-88.64c.925-4.038-1.6-8.06-5.637-8.984-4.035-.924-8.061 1.599-8.984 5.638l-25.272 110.404c-.72 3.141.647 6.389 3.396 8.071 1.207.739 2.562 1.103 3.913 1.103l107.559 2.658c.063.002.126.002.189.002 4.056 0 7.394-3.237 7.494-7.315.102-4.142-3.172-7.582-7.312-7.684z" fill="#78c2a4"/></g></svg>