<svg id="Capa_1" enable-background="new 0 0 512 512" height="512" viewBox="0 0 512 512" width="512" xmlns="http://www.w3.org/2000/svg"><g><path d="m512 256c0 65.97-24.95 126.1-65.93 171.49-2.55 2.82-27.614 2.436-29.806-.655-13.78-19.43.68-.68 0 0-6.55 6.5-13.46 12.65-20.68 18.4-6.21 4.96-12.65 9.63-19.32 14-11.14 7.31-2.934 24.745-15.194 30.265-32.06 14.46-67.62 22.5-105.07 22.5s-73.02-8.04-105.08-22.5c-27.45-12.37-52.33-29.44-73.61-50.18-47.69-46.5-77.31-111.45-77.31-183.32 0-141.38 114.62-256 256-256s256 114.62 256 256z" fill="#78c2a4"/><path d="m135.538 311.919h172.256v99.097h-172.256z" fill="#f9f6f6"/><g fill="#dddaec"><path d="m135.538 311.919h172.256v49.549h-172.256z"/><path d="m135.538 311.919h21.581v99.097h-21.581z"/><path d="m87.755 347.169h-25.458c-24.869 0-45.029-20.16-45.029-45.029v-237.162c0-24.869 20.16-45.029 45.029-45.029h25.457c24.869 0 362.482 20.16 362.482 45.029v237.162c0 24.868-337.612 45.029-362.481 45.029z"/></g><path d="m430.664 347.169h-342.909c-24.869 0-45.029-20.16-45.029-45.029v-237.162c0-24.869 20.16-45.029 45.029-45.029h342.91c24.869 0 45.029 20.16 45.029 45.029v237.162c0 24.868-20.161 45.029-45.03 45.029z" fill="#f9f6f6"/><path d="m455.69 64.98v199.024c0 13.241-10.734 23.976-23.976 23.976h-345.008c-13.241 0-23.976-10.734-23.976-23.976v-199.024c0-13.824 11.206-25.03 25.03-25.03h342.9c13.824 0 25.03 11.207 25.03 25.03z" fill="#80b4fb"/><path d="m410.959 428.087c-.68.69-15.725 4.197-16.405 4.877-6.55 6.5-13.46 12.65-20.68 18.4-6.21 4.96 29.016 14.476 22.346 18.846-11.14 7.31-22.89 13.77-35.15 19.29h-231.88l-51.88-48.55v-43.9l347.17 19.29z" fill="#dddaec"/><path d="m446.07 427.49c-3.19 3.53-6.47 6.97-9.85 10.32-6.55 6.5-13.46 12.65-20.68 18.4-6.21 4.96-12.65 9.63-19.32 14h-267.03l-51.88-73.16h347.17z" fill="#f9f6f6"/><path d="m436.22 437.81c-6.55 6.5-13.46 12.65-20.68 18.4h-279.12l-32.02-45.16h312.85z" fill="#dddaec"/><g><path d="m359.981 169.716s-.202 6.68-.866 17.071c-.962 15.004-2.886 37.747-6.561 59.289-2.808 16.475-17.039 28.552-33.752 28.552h-119.183c-16.713 0-30.944-12.077-33.752-28.552-3.674-21.542-5.599-44.285-6.561-59.289-.664-10.391-.866-17.071-.866-17.071z" fill="#dd5790"/><path d="m359.981 169.716s-.202 6.68-.866 17.071c-1.058.229-2.149.357-3.262.38-64.43 1.237-128.855 1.237-193.285 0-1.113-.023-2.204-.151-3.262-.38-.664-10.391-.866-17.071-.866-17.071z" fill="#9d549b"/><path d="m214.344 274.628h-14.725c-16.713 0-30.944-12.077-33.752-28.552-6.217-36.455-7.427-76.36-7.427-76.36h24.901s.912 39.905 5.589 76.36c2.117 16.475 12.828 28.552 25.414 28.552z" fill="#9d549b"/><path d="m355.851 177.866c-64.427 1.238-128.854 1.238-193.281 0-8.011-.154-14.849-5.856-16.442-13.708-1.025-5.052-1.025-10.103 0-15.155 1.593-7.852 8.431-13.554 16.442-13.708 64.427-1.238 128.854-1.238 193.281 0 8.011.154 14.849 5.856 16.442 13.708 1.025 5.052 1.025 10.103 0 15.155-1.594 7.852-8.431 13.554-16.442 13.708z" fill="#dd5790"/><path d="m179.037 178.15c-5.489-.082-10.982-.179-16.471-.284-8.009-.156-14.849-5.855-16.438-13.708-1.026-5.053-1.026-10.102 0-15.156 1.59-7.853 8.43-13.557 16.438-13.708 5.489-.105 10.982-.202 16.471-.284-6.538 1.622-11.738 6.881-13.117 13.703-1.067 5.246-1.067 10.487 0 15.728 1.38 6.823 6.58 12.088 13.117 13.709z" fill="#9d549b"/><g><g><path d="m220.025 61.906c-2.415-1.221-4.94-2.139-7.574-2.757-5.44-1.275-10.975 1.729-13.016 6.93-10.192 25.974-19.732 52.185-28.62 78.634-1.78 5.296.529 11.155 5.516 13.675 2.415 1.221 4.94 2.139 7.574 2.757 5.44 1.275 10.975-1.729 13.016-6.93 10.192-25.974 19.732-52.185 28.62-78.634 1.78-5.296-.529-11.154-5.516-13.675z" fill="#26457d"/><path d="m179.474 159.782c-1.07-.409-2.12-.874-3.145-1.393-4.988-2.518-7.296-8.379-5.515-13.674 8.89-26.447 18.429-52.657 28.621-78.635 2.039-5.201 7.574-8.204 13.015-6.93 1.119.261 2.216.582 3.294.955-3.536.941-6.561 3.531-7.975 7.136-10.618 27.071-20.559 54.383-29.824 81.941-1.235 3.675-.58 7.609 1.529 10.6z" fill="#21386b"/></g><g><path d="m305.971 59.148c-2.634.617-5.159 1.536-7.574 2.757-4.987 2.52-7.296 8.379-5.516 13.675 8.888 26.449 18.428 52.66 28.62 78.634 2.041 5.201 7.576 8.205 13.016 6.93 2.635-.617 5.159-1.536 7.574-2.757 4.987-2.52 7.296-8.379 5.516-13.675-8.888-26.449-18.428-52.66-28.62-78.634-2.041-5.202-7.576-8.205-13.016-6.93z" fill="#26457d"/><path d="m337.82 160.191c-1.083.374-2.186.693-3.305.954-5.439 1.278-10.975-1.729-13.015-6.93-10.19-25.974-19.73-52.184-28.621-78.635-1.781-5.295.529-11.153 5.515-13.674 1.025-.519 2.072-.978 3.138-1.386-2.104 2.994-2.756 6.922-1.522 10.593 9.267 27.563 19.207 54.875 29.824 81.941 1.417 3.609 4.448 6.201 7.986 7.137z" fill="#21386b"/></g></g><g fill="#26457d"><path d="m213.783 197.428c-.072 0-.143 0-.215 0-5.976.014-10.852 4.834-11.031 10.807-.279 9.292-.279 18.584 0 27.876.179 5.973 5.055 10.793 11.031 10.807h.215c5.976-.014 10.852-4.834 11.031-10.807.279-9.292.279-18.584 0-27.875-.18-5.974-5.056-10.794-11.031-10.808z"/><path d="m259.318 197.428c-.072 0-.143 0-.215 0-5.976.014-10.852 4.834-11.031 10.807-.279 9.292-.279 18.584 0 27.876.179 5.973 5.055 10.793 11.031 10.807h.215c5.976-.014 10.852-4.834 11.031-10.807.279-9.292.279-18.584 0-27.875-.179-5.974-5.055-10.794-11.031-10.808z"/><path d="m304.854 197.428c-.072 0-.143 0-.215 0-5.976.014-10.852 4.834-11.031 10.807-.279 9.292-.279 18.584 0 27.876.179 5.973 5.055 10.793 11.031 10.807h.215c5.976-.014 10.852-4.834 11.031-10.807.279-9.292.279-18.584 0-27.875-.18-5.974-5.056-10.794-11.031-10.808z"/></g></g></g></svg>