<svg id="Capa_1" enable-background="new 0 0 512 512" height="512" viewBox="0 0 512 512" width="512" xmlns="http://www.w3.org/2000/svg"><g><path d="m512 256c0 90.49-46.95 170.02-117.83 215.54-7.64 4.91-15.55 4.42-23.72 8.51-12.4 6.2-25.38 11.44-38.82 15.58-.43.13-.85.26-1.28.39-3.68 1.12-7.4 2.16-11.15 3.12-2.49.63-4.99 1.22-7.5 1.78-11.54 2.56-23.37 4.34-35.44 5.29-6.69.52-13.44.79-20.26.79-3.56 0-7.1-.07-10.62-.22-2.02-.08-4.03-.18-6.03-.31-4.5-.29-8.97-.7-13.4-1.22-1.07-.12-2.13-.25-3.19-.39-42.72-5.54-71.658-30.211-105.078-54.131-14.24-10.18-37.872-8.189-49.732-21.019v-.01c-42.17-45.64-67.95-106.66-67.95-173.7 0-141.38 114.62-256 256-256s256 114.62 256 256z" fill="#78c2a4"/><path d="m394.17 471.54c-7.64 4.91-15.55 9.42-23.72 13.51-12.4 6.2-25.38 11.44-38.82 15.58-.43.13-.85.26-1.28.39-3.68 1.12-7.4 2.16-11.15 3.12-2.49.63-4.99 1.22-7.5 1.78-11.54 2.56-23.37 4.34-35.44 5.29-6.69.52-13.44.79-20.26.79-3.56 0-7.1-.07-10.62-.22-2.02-.08-4.03-.18-6.03-.31-4.5-.29-8.97-.7-13.4-1.22-3.24-3.87-6.2-8.03-8.84-12.44l42.88-25.71c6.45 10.74 16.69 18.34 28.84 21.38 12.16 3.04 24.77 1.17 35.52-5.27 22.18-13.31 29.41-42.18 16.11-64.36l-71.1-118.57 42.88-25.72 71.1 118.58c13.75 22.93 16.88 49.32 10.83 73.4z" fill="#dd5790"/><path d="m346.298 488.211c-10.61 6.36-23.03 8.26-35.03 5.38 4.55-1.11 8.95-2.91 13.08-5.38 22.19-13.31 29.41-42.18 16.11-64.36l-71.1-118.57 42.89-25.72 5.8 9.68-26.74 16.04 71.1 118.57c13.3 22.18 6.07 51.05-16.11 64.36z" fill="#9d549b"/><g><g><path d="m276.26 478.17v33.04c-6.69.52-13.44.79-20.26.79-74.34 0-141.27-31.69-188.05-82.29 14.82-19.93 38.54-32.84 65.29-32.84h61.71c44.91 0 81.31 36.4 81.31 81.3z" fill="#dd5790"/><path d="m187.34 396.87c-40.18 0-73.56 29.14-80.13 67.46-14.24-10.18-27.4-21.79-39.26-34.62 0 0-.01 0 0-.01 14.82-19.92 38.54-32.83 65.29-32.83z" fill="#9d549b"/><path d="m200.521 306.091v96.329c0 10.162-4.121 19.359-10.78 26.007-6.648 6.659-15.845 10.78-26.007 10.78-7.158 0-13.839-2.039-19.478-5.585-10.39-6.496-17.309-18.047-17.309-31.202v-96.329z" fill="#ffddce"/><g fill="#ffcbbe"><path d="m200.521 306.091v91.807c-5.011.705-10.119 1.063-15.325 1.063-21.376 0-41.343-6.073-58.251-16.594v-76.276z"/><path d="m144.254 343.486v90.137c-10.39-6.496-17.309-18.047-17.309-31.202v-58.934h17.309z"/></g></g><path d="m154.202 48.59c-39.566 0-72.679 27.537-81.279 64.486l-19.6-19.6c-13.966 13.966-16.765 34.859-8.422 51.616h-23.643c0 24.73 20.047 44.777 44.777 44.777 1.585 0 3.15-.085 4.692-.246v7.918h136.688v-148.951z" fill="#21386b"/><path d="m75.351 203.03c-17.487 17.487-17.487 45.838 0 63.325s45.838 17.487 63.325 0" fill="#26457d"/><path d="m316.327 242.015h-244.448c-15.826 0-28.655-12.829-28.655-28.655 0-15.826 12.829-28.655 28.655-28.655h244.448c15.826 0 28.655 12.829 28.655 28.655.001 15.826-12.829 28.655-28.655 28.655z" fill="#ffcbbe"/><path d="m71.879 225.602c-6.75 0-12.242-5.492-12.242-12.242s5.492-12.242 12.242-12.242h244.448c6.75 0 12.242 5.492 12.242 12.242s-5.492 12.242-12.242 12.242z" fill="#eaac9d"/><path d="m198.8 382.368c-61.043 0-110.528-49.485-110.528-110.528v-78.364c0-61.043 49.485-110.528 110.528-110.528h61.599c27.023 0 48.929 21.906 48.929 48.929v139.963c0 61.043-49.485 110.528-110.528 110.528z" fill="#ffddce"/><path d="m226.075 378.974c-8.723 2.216-17.856 3.388-27.27 3.388-61.047 0-110.533-49.475-110.533-110.522v-78.363c0-61.047 49.487-110.533 110.533-110.533h54.528c-61.035 0-110.522 49.487-110.522 110.533v78.363c.001 51.644 35.407 94.999 83.264 107.134z" fill="#ffcbbe"/><path d="m232.483 242.6h-28.071v-145.616c0-7.751 6.284-14.035 14.035-14.035 7.751 0 14.035 6.284 14.035 14.035v145.616z" fill="#ffcbbe"/><path d="m118.101 62.647v16.665c-21.5 7.874-36.843 28.518-36.843 52.746v52.646h7.738c27.701 0 50.158-22.456 50.158-50.158v-33.692h23.554c20.581 0 37.266-16.685 37.266-37.266v-.941z" fill="#21386b"/><path d="m300.345 60.314 24.983-24.983c-23.554-23.554-61.743-23.554-85.297 0v-35.331c-33.311 0-60.314 27.004-60.314 60.314s27.004 60.314 60.314 60.314h120.629c-.001-33.31-27.004-60.314-60.315-60.314z" fill="#26457d"/><path d="m235.259 222.002h-22.612c-8.685 0-15.725 7.04-15.725 15.725 0 8.685 7.04 15.725 15.725 15.725h22.612c8.685 0 15.725-7.04 15.725-15.725 0-8.685-7.04-15.725-15.725-15.725z" fill="#ffcbbe"/><path d="m187.23 205.676h-25.991c-4.492 0-8.134-3.642-8.134-8.134s3.642-8.134 8.134-8.134h15.822c-2.915-5.446-8.66-9.158-15.257-9.158-4.492 0-8.134-3.642-8.134-8.134s3.642-8.134 8.134-8.134c18.506 0 33.561 15.055 33.561 33.56 0 4.492-3.642 8.134-8.135 8.134z" fill="#eaac9d"/><path d="m180.035 325.431c-2.776 0-5.551-1.059-7.669-3.177-4.235-4.235-4.235-11.103.001-15.338 2.754-2.754 4.27-6.416 4.27-10.31 0-3.895-1.517-7.556-4.27-10.31-4.235-4.235-4.236-11.102-.001-15.338 4.235-4.235 11.102-4.235 15.338 0 6.851 6.851 10.624 15.959 10.624 25.648 0 9.688-3.773 18.797-10.624 25.648-2.118 2.117-4.894 3.177-7.669 3.177z" fill="#ffcbbe"/><path d="m270.316 205.676h-22.446c-4.492 0-8.134-3.642-8.134-8.134 0-18.505 15.055-33.56 33.561-33.56 4.492 0 8.134 3.642 8.134 8.134s-3.642 8.134-8.134 8.134c-6.597 0-12.342 3.712-15.257 9.158h12.276c4.492 0 8.134 3.642 8.134 8.134s-3.642 8.134-8.134 8.134z" fill="#eaac9d"/><path d="m242.91 281.46v37.86c0 6.89-5.37 12.53-12.16 12.96-.28.02-5.612-5.022-5.892-5.022l-3.922-2.23c-7.17 0-10.475 1.462-10.475-5.708l-4.341-12.8v-25.06c0-.74.05-1.47.13-2.19.06-.5 2.68-.99 2.77-1.47.02-.1 5.069-1.777 5.099-1.877 1.81-8.25 1.591-10.087 10.391-10.087 3.78 0 7.3-1.626 10.23.344 1 .67 1.93 1.43 2.78 2.28 2.44 2.43 4.2 5.54 4.96 9.03.03.1.05.21.07.31.23 1.18.36 2.41.36 3.66z" fill="#21386b"/><path d="m234.74 266.18v13.09h-28.49c.06-.5.14-.99.23-1.47.02-.1.04-.2.07-.3 1.81-8.25 9.16-14.43 17.96-14.43 3.78 0 7.3 1.14 10.23 3.11z" fill="#f9f6f6"/><path d="m230.75 323.71v8.57c-.28.02-.56.03-.84.03h-10.8c-7.17 0-12.99-5.82-12.99-12.99v-12.8h7.43c9.5 0 17.2 7.7 17.2 17.19z" fill="#dd5790"/></g><path d="m361.195 261.463c-3.644 0-6.961-2.467-7.885-6.163-1.09-4.358 1.56-8.775 5.918-9.864l56.262-14.066c4.357-1.09 8.774 1.56 9.864 5.918s-1.56 8.775-5.918 9.864l-56.262 14.066c-.662.166-1.326.245-1.979.245z" fill="#e4f6ff"/><path d="m397.637 300.315c-.398 0-.8-.029-1.205-.089l-36.426-5.41c-4.444-.66-7.511-4.797-6.851-9.241.659-4.444 4.796-7.512 9.24-6.851l36.426 5.41c4.444.66 7.511 4.797 6.851 9.241-.599 4.038-4.071 6.94-8.035 6.94z" fill="#e4f6ff"/><g><circle cx="423.643" cy="88.357" fill="#dd5790" r="88.357"/><circle cx="423.643" cy="88.357" fill="#f9f6f6" r="74.357"/><circle cx="423.643" cy="88.357" fill="#f9f6f6" r="74.357"/><path d="m439.105 161.097c-4.99 1.06-10.16 1.62-15.46 1.62-41 0-74.36-33.36-74.36-74.36s33.36-74.36 74.36-74.36c5.3 0 10.47.56 15.46 1.62-33.6 7.13-58.89 37.04-58.89 72.74s25.29 65.61 58.89 72.74z" fill="#dddaec"/><g fill="#dd5790"><path d="m384.436 127.564c-4.972-4.972-4.972-13.034 0-18.006l60.407-60.407c4.972-4.972 13.034-4.972 18.006 0 4.972 4.972 4.972 13.034 0 18.006l-60.407 60.407c-4.972 4.972-13.034 4.972-18.006 0z"/><path d="m384.436 49.151c4.972-4.972 13.034-4.972 18.006 0l60.407 60.407c4.972 4.972 4.972 13.034 0 18.006-4.972 4.972-13.034 4.972-18.006 0l-60.407-60.407c-4.972-4.972-4.972-13.034 0-18.006z"/></g></g><g><g><path d="m278.894 347.137-6.387-6.387c-4.589-4.589-12.028-4.589-16.617 0s-4.589 12.028 0 16.617l15.049 15.049c4.589 4.589 12.028 4.589 16.617 0l5.173-5.173c4.848-4.848 4.848-12.709 0-17.557-3.742-3.743-9.274-4.584-13.835-2.549z" fill="#ffddce"/><path d="m293.07 366.87c-.106.134-.219.248-.339.368l-5.176 5.176c-4.589 4.589-12.028 4.589-16.617 0l-15.047-15.047c-4.589-4.589-4.589-12.028 0-16.617 1.032-1.032 2.213-1.831 3.465-2.404-1.952 4.327-1.153 9.595 2.404 13.152l15.047 15.047c4.475 4.476 11.66 4.589 16.263.325z" fill="#ffcbbe"/></g><path d="m277.332 285.566c-18.291 14.524-21.345 41.125-6.821 59.416l12.793 16.112c14.524 18.291 41.125 21.345 59.416 6.821 18.291-14.524 21.345-41.125 6.821-59.416l-12.793-16.112c-14.524-18.291-41.125-21.345-59.416-6.821z" fill="#ffddce"/><path d="m350.037 360.478c-2.08 2.705-4.521 5.214-7.32 7.436-18.286 14.519-44.893 11.465-59.413-6.821l-12.795-16.114c-14.526-18.295-11.465-44.893 6.821-59.413 2.799-2.223 5.796-4.031 8.902-5.444-11.503 15.029-11.814 36.488.49 51.983l12.795 16.114c12.297 15.487 33.268 20.048 50.52 12.259z" fill="#ffcbbe"/></g></g></svg>