<svg id="Layer_1" enable-background="new 0 0 512 512" height="512" viewBox="0 0 512 512" width="512" xmlns="http://www.w3.org/2000/svg"><g><g><path d="m176 304h-64v-16c0-8.822-7.178-16-16-16s-16 7.178-16 16v16h-64v-16c0-44.112 35.888-80 80-80s80 35.888 80 80z" fill="#f58caa"/></g><g><path d="m264 176h-24c-52.935 0-96-43.065-96-96v-32h64v32c0 17.645 14.355 32 32 32h24z" fill="#f58caa"/></g><g><path d="m144 48h32v32c0 35.346 28.654 64 64 64h24v32h-24c-53.019 0-96-42.981-96-96z" fill="#d76e8c"/></g><g><path d="m368 48c70.693 0 128 57.307 128 128v64c0 123.712-100.288 224-224 224-88.365 0-160-71.634-160-160h64c35.346 0 64-28.654 64-64v-64c0-70.692 57.307-128 128-128z" fill="#f58caa"/></g><g><path d="m432 112c-35.346 0-64 28.654-64 64v96c0 53.02-42.981 96-96 96h-64c-35.346 0-64-28.654-64-64v-16c0-26.51-21.49-48-48-48-26.51 0-48 21.49-48 48v16h32v-16c0-8.836 7.163-16 16-16s16 7.164 16 16v16c0 88.365 71.634 160 160 160 123.712 0 224-100.288 224-224v-64c0-35.346-28.654-64-64-64z" fill="#d76e8c"/></g><g><path d="m176 336h-27.951c14.245 55.146 64.417 96 123.951 96h1c70.759 0 132.655-38.677 165.656-96z" fill="#fad741"/></g><g><path d="m272 248c-4.418 0-8-3.582-8-8v-64c0-57.346 46.654-104 104-104 4.418 0 8 3.582 8 8s-3.582 8-8 8c-48.523 0-88 39.477-88 88v64c0 4.418-3.582 8-8 8z" fill="#fac3c8"/></g><g><circle cx="236" cy="388" fill="#faa032" r="20"/></g><g><circle cx="280" cy="360" fill="#faa032" r="8"/></g><g><circle cx="345.333" cy="390.667" fill="#faa032" r="9.333"/></g></g></svg>