<svg id="Capa_1" enable-background="new 0 0 512 512" height="512" viewBox="0 0 512 512" width="512" xmlns="http://www.w3.org/2000/svg"><g><path d="m512 256c0 133.87-102.77 243.75-233.72 255.04-7.34.64-16.56-23.802-24.07-23.802-41.63 0-75.966-10.17-110.716-27.8-5.62-2.85-11.13-5.91-16.5-9.16-2.65-1.6-5.27-3.25-7.85-4.94-19.13-12.52-39.664-2.538-54.774-19.588-40.05-45.18-64.37-104.63-64.37-169.75 0-59.71 20.45-114.65 54.73-158.19 7.55-9.61 30.344-4.116 39.184-12.546 5.71-5.44 15.261-5.033 21.461-9.933 11.66-9.24 22.724-8.842 35.914-15.962 15.81-8.54 20.098-23.075 37.688-28.155 2.48-.72-.19-12.217 2.31-12.858 2.46-.63 4.92-1.22 7.4-1.77.48-.11.97-.22 1.46-.32 5.09-1.11 10.23-2.07 15.43-2.87 12.86-2.01 26.03-3.04 39.45-3.04 3.72 0 7.42.08 11.1.24 26.53 1.13 52.993-4.056 76.833 4.564 98.58 35.59 169.04 129.99 169.04 240.84z" fill="#9dc6fb"/><g><path d="m278.28 373.94v137.1c-4.21.37-8.45.63-12.71.78-3.17.12-6.37.18-9.57.18-.6 0-1.19 0-1.79-.01-75.54-.51-143.31-33.74-189.84-86.24v-51.81c0-42.82 34.71-77.53 77.53-77.53h58.85c42.82 0 77.53 34.71 77.53 77.53z" fill="#ffddce"/><path d="m265.57 400.08v111.74c-3.17.12-6.37.18-9.57.18-.6 0-1.19 0-1.79-.01v-111.91z" fill="#ffcbbe"/><path d="m193.49 296.4c-42.82 0-77.53 34.71-77.53 77.54v96.39c-19.13-12.52-36.48-27.53-51.59-44.58v-51.81c0-42.83 34.71-77.54 77.53-77.54z" fill="#ffcbbe"/><path d="m206.059 209.846v91.855c0 9.69-3.93 18.46-10.28 24.799-6.339 6.35-15.109 10.28-24.799 10.28-6.826 0-13.196-1.944-18.574-5.326-9.907-6.195-16.505-17.209-16.505-29.753v-91.855z" fill="#ffddce"/><path d="m206.059 209.846v87.543c-4.778.672-9.649 1.013-14.613 1.013-20.383 0-39.423-5.791-55.545-15.823v-72.733z" fill="#ffcbbe"/><path d="m152.407 245.505v85.95c-9.907-6.195-16.505-17.209-16.505-29.753v-56.197z" fill="#ffcbbe"/><path d="m199.66 6.23v100.11h-130.34v-7.55c-1.47.15-2.96.23-4.47.23-3.49 0-6.88-.42-10.12-1.21 7.55-9.61 15.79-18.67 24.63-27.1 16.47-15.7 35.02-29.23 55.21-40.13 15.81-8.54 32.63-15.46 50.22-20.54 4.9-1.42 9.86-2.69 14.87-3.81z" fill="#21386b"/><path d="m73.731 111.572c-16.674 16.674-16.674 43.709 0 60.383s43.709 16.674 60.383 0" fill="#26457d"/><path d="m303.515 148.746h-233.094c-15.091 0-27.324-12.234-27.324-27.324 0-15.091 12.234-27.324 27.324-27.324h233.094c15.091 0 27.324 12.234 27.324 27.324.001 15.091-12.233 27.324-27.324 27.324z" fill="#ffcbbe"/><path d="m70.421 133.095c-6.437 0-11.673-5.237-11.673-11.673 0-6.437 5.237-11.673 11.673-11.673h233.094c6.437 0 11.673 5.237 11.673 11.673 0 6.437-5.237 11.673-11.673 11.673z" fill="#eaac9d"/><path d="m296.84 43.72v133.47c0 58.2-47.19 105.39-105.39 105.39-58.21 0-105.4-47.19-105.4-105.39v-74.73c0-17 9.76-25.768 16.91-39.987 11.66-9.24 18.42-24.773 31.61-31.892 15.81-8.54 32.63-15.46 50.22-20.54 4.9-1.42 26.224 10.101 31.234 8.98.48-.11.97-.22 1.46-.32 17.68-3.87 20.935-8.326 39.775-8.326 3.72 0 6.161-10.294 9.841-10.134 17.41 6.769 29.74 23.689 29.74 43.479z" fill="#ffddce"/><path d="m217.45 279.34c-8.31 2.12-17.02 3.23-26 3.23-58.21 0-105.4-47.17-105.4-105.38v-74.73c0-17 9.76-25.768 16.91-39.987 11.66-9.24 18.42-24.773 31.61-31.892 15.81-8.54 32.63-15.46 50.22-20.54 4.9-1.42 9.86-2.69 14.87-3.81.48-.11.97-.22 1.46-.32-37.13 16.3-63.06 53.4-63.06 96.55v74.73c0 49.239 33.76 90.579 79.39 102.149z" fill="#ffcbbe"/><path d="m164.148 121.98c-7.391 0-13.383-5.992-13.383-13.383v-27.883c0-7.391 5.992-13.383 13.383-13.383 7.391 0 13.383 5.992 13.383 13.383v27.882c.001 7.392-5.991 13.384-13.383 13.384z" fill="#26457d"/><path d="m246.679 121.98c-7.391 0-13.383-5.992-13.383-13.383v-27.883c0-7.391 5.992-13.383 13.383-13.383 7.391 0 13.383 5.992 13.383 13.383v27.882c.001 7.392-5.991 13.384-13.383 13.384z" fill="#26457d"/><path d="m218.8 10.45v138.85h-26.77v-138.85c0-.84.08-1.66.23-2.45 2.46-.63 4.92-1.22 7.4-1.77.48-.11.97-.22 1.46-.32 5.09-1.11 10.23-2.07 15.43-2.87 1.42 2.12 2.25 4.67 2.25 7.41z" fill="#ffcbbe"/><path d="m204.272 220.188h-27.882c-5.712 0-10.342-4.63-10.342-10.342s4.63-10.342 10.342-10.342h27.882c5.712 0 10.342 4.63 10.342 10.342s-4.63 10.342-10.342 10.342z" fill="#ffcbbe"/><path d="m134.57 30.58v15.69c0 26.41-21.41 47.83-47.83 47.83h-7.38v-23.39c16.47-15.7 35.02-29.23 55.21-40.13z" fill="#21386b"/><path d="m345.79 33h-115.03c-18.79 0-35.48-9.02-45.97-22.96 22.6-6.54 46.5-10.04 71.21-10.04 30.53 0 59.81 5.35 86.96 15.16 1.84 5.62 2.83 11.61 2.83 17.84z" fill="#26457d"/><path d="m221.444 129.663h-21.562c-8.281 0-14.994 6.713-14.994 14.994 0 8.281 6.713 14.994 14.994 14.994h21.562c8.281 0 14.994-6.713 14.994-14.994.001-8.281-6.712-14.994-14.994-14.994z" fill="#ffcbbe"/><path d="m140.31 396.611v87.819c-5.62-2.85-11.13-5.91-16.5-9.16l-.003-55.39z" fill="#ffcbbe"/><path d="m295.071 367.066h-113.488c-12.9 0-24.167 6.969-30.26 17.342h-27.515v35.472h27.515c6.093 10.374 17.36 17.342 30.26 17.342h113.489c19.373 0 35.078-15.705 35.078-35.078-.001-19.373-15.706-35.078-35.079-35.078z" fill="#e4f6ff"/><path d="m330.152 402.143c0 19.37-15.699 35.079-35.079 35.079h-113.49c-12.896 0-24.158-6.97-30.26-17.343h-27.509v-12.172h27.509c6.102 3.258 17.364 5.44 30.26 5.44h113.49c19.38 0 35.079-4.923 35.079-11.004z" fill="#cbe2ff"/><path d="m181.583 416.539c-5.157 0-9.802-2.667-12.426-7.135l-4.265-7.26 4.265-7.26c2.624-4.467 7.269-7.135 12.426-7.135h113.489c7.937 0 14.395 6.458 14.395 14.395 0 7.938-6.458 14.395-14.395 14.395z" fill="#dd5790"/><path d="m123.814 396.611h79.32v11.066h-79.32z" fill="#dd5790"/><g fill="#fff"><path d="m281.315 404.895c-2.659 0-4.815-2.156-4.815-4.815v-20.634c0-2.659 2.156-4.815 4.815-4.815 2.659 0 4.815 2.156 4.815 4.815v20.634c0 2.659-2.156 4.815-4.815 4.815z"/><path d="m255.356 404.895c-2.659 0-4.815-2.156-4.815-4.815v-20.634c0-2.659 2.156-4.815 4.815-4.815 2.659 0 4.815 2.156 4.815 4.815v20.634c-.001 2.659-2.156 4.815-4.815 4.815z"/><path d="m229.396 404.895c-2.659 0-4.815-2.156-4.815-4.815v-20.634c0-2.659 2.156-4.815 4.815-4.815 2.659 0 4.815 2.156 4.815 4.815v20.634c0 2.659-2.156 4.815-4.815 4.815z"/><path d="m203.437 404.895c-2.659 0-4.815-2.156-4.815-4.815v-20.634c0-2.659 2.156-4.815 4.815-4.815 2.659 0 4.815 2.156 4.815 4.815v20.634c-.001 2.659-2.156 4.815-4.815 4.815z"/></g></g><g fill="#e4f6ff"><path d="m361.701 403.104-.457-1.704c-1.611-6.011 1.708-12.243 7.595-14.261l18.107-6.208c6.486-2.224 13.498 1.511 15.273 8.134l1.135 4.235c1.775 6.623-2.431 13.363-9.16 14.68l-18.785 3.677c-6.108 1.196-12.098-2.542-13.708-8.553z"/><path d="m339.055 358.37-1.248-1.248c-4.4-4.4-4.642-11.457-.553-16.148l12.577-14.43c4.505-5.169 12.445-5.441 17.293-.592l3.1 3.1c4.848 4.848 4.576 12.788-.592 17.293l-14.43 12.577c-4.691 4.09-11.747 3.849-16.147-.552z"/><path d="m294.777 334.933-1.704-.457c-6.011-1.611-9.749-7.601-8.553-13.708l3.677-18.785c1.317-6.729 8.058-10.934 14.68-9.16l4.235 1.135c6.623 1.775 10.357 8.787 8.134 15.273l-6.208 18.107c-2.018 5.887-8.25 9.206-14.261 7.595z"/></g><g><g><path d="m476.55 264.692c-18.979 0-34.421-15.441-34.421-34.42s15.441-34.42 34.421-34.42c6.897 0 13.554 2.035 19.25 5.883 3.432 2.319 4.334 6.981 2.015 10.414-2.319 3.431-6.981 4.334-10.413 2.015-3.206-2.167-6.959-3.312-10.852-3.312-10.709 0-19.421 8.712-19.421 19.42s8.712 19.42 19.421 19.42c3.926 0 7.219-1.16 9.786-3.446.502-.447.982-.943 1.425-1.472 2.661-3.174 7.392-3.59 10.566-.929s3.59 7.392.93 10.566c-.908 1.082-1.897 2.103-2.941 3.034-5.326 4.743-12.16 7.247-19.766 7.247z" fill="#dd5790"/></g><g><path d="m371.821 264.694c-1.008 0-2.032-.205-3.015-.636-3.792-1.667-5.515-6.092-3.848-9.884l23.645-53.787h-23.887c-4.143 0-7.5-3.358-7.5-7.5s3.357-7.5 7.5-7.5h35.376c2.533 0 4.896 1.279 6.28 3.4s1.605 4.798.586 7.118l-28.268 64.305c-1.234 2.811-3.984 4.484-6.869 4.484z" fill="#dd5790"/></g><g><path d="m326.773 264.692c-11.884 0-22.083-8.866-23.723-20.623-.153-1.087-.231-2.211-.231-3.332 0-4.142 3.357-7.5 7.5-7.5s7.5 3.358 7.5 7.5c0 .424.029.845.086 1.251.613 4.396 4.425 7.704 8.868 7.704 4.938 0 8.954-4.017 8.954-8.955s-4.017-8.954-8.954-8.954c-4.143 0-7.5-3.358-7.5-7.5s3.357-7.5 7.5-7.5c4.938 0 8.954-4.017 8.954-8.954s-4.017-8.955-8.954-8.955c-4.271 0-7.966 3.033-8.786 7.211-.798 4.064-4.736 6.71-8.805 5.914-4.064-.798-6.713-4.741-5.914-8.805 2.199-11.194 12.084-19.319 23.505-19.319 13.208 0 23.954 10.746 23.954 23.955 0 6.366-2.496 12.16-6.561 16.454 4.064 4.294 6.561 10.088 6.561 16.454.001 13.208-10.746 23.954-23.954 23.954z" fill="#dd5790"/></g><path d="m435.2 207.265c-11.021 0-19.987-8.966-19.987-19.986 0-11.021 8.966-19.987 19.987-19.987s19.986 8.966 19.986 19.987c.001 11.02-8.965 19.986-19.986 19.986zm0-24.973c-2.75 0-4.987 2.237-4.987 4.987s2.237 4.986 4.987 4.986c2.749 0 4.986-2.237 4.986-4.986s-2.237-4.987-4.986-4.987z" fill="#dd5790"/></g></g></svg>