<?xml version="1.0" encoding="iso-8859-1"?>
<!-- Generator: Adobe Illustrator 19.0.0, SVG Export Plug-In . SVG Version: 6.00 Build 0)  -->
<svg xmlns="http://www.w3.org/2000/svg" xmlns:xlink="http://www.w3.org/1999/xlink" version="1.1" id="Layer_1" x="0px" y="0px" viewBox="0 0 489.997 489.997" style="enable-background:new 0 0 489.997 489.997;" xml:space="preserve" width="512" height="512">
<g>
	<path style="fill:#FFD0A6;" d="M489.997,268.468c0,30.517-23.502,55.526-53.386,57.917c-1.559,0.132-3.144,0.198-4.729,0.198   c-4.069,0-8.032-0.41-11.863-1.215H69.979c-3.831,0.806-7.795,1.215-11.864,1.215h-0.04C25.986,326.557,0,300.557,0,268.468   c0-30.253,23.119-55.103,52.659-57.838c1.797-0.185,3.62-0.264,5.456-0.264c2.444,0,4.835,0.145,7.2,0.436h359.366   c2.365-0.291,4.756-0.436,7.2-0.436c3.448,0,6.83,0.304,10.106,0.885C469.268,216.02,489.997,239.826,489.997,268.468z"/>
	<path style="fill:#E8B182;" d="M441.988,211.251v73.612c0,14.294-1.863,28.206-5.377,41.522c-1.559,0.132-3.144,0.198-4.729,0.198   c-4.069,0-8.032-0.41-11.863-1.215H69.979c-3.831,0.806-7.795,1.215-11.864,1.215h-0.04c-3.54-13.383-5.416-27.347-5.416-41.72   V210.63c1.797-0.185,3.62-0.264,5.456-0.264c2.444,0,4.835,0.145,7.2,0.436h359.366c2.365-0.291,4.756-0.436,7.2-0.436   C435.329,210.366,438.712,210.67,441.988,211.251z"/>
	<path style="fill:#D6996B;" d="M458.312,277.718c-2.896,0-5.654-1.687-6.882-4.511c-6.122-14.079-23.948-9.202-24.704-8.987   c-3.984,1.131-8.132-1.183-9.263-5.167c-1.131-3.984,1.182-8.132,5.167-9.263c10.767-3.057,33.52-3.345,42.556,17.435   c1.652,3.799-0.089,8.217-3.887,9.869C460.325,277.517,459.31,277.718,458.312,277.718z"/>
	<path style="fill:#D6996B;" d="M36.342,277.718c-0.998,0-2.013-0.201-2.987-0.624c-3.798-1.651-5.539-6.07-3.887-9.869   c9.036-20.782,31.788-20.492,42.556-17.435c3.985,1.131,6.298,5.278,5.167,9.263c-1.128,3.976-5.257,6.289-9.235,5.175   c-1.932-0.528-18.792-4.686-24.732,8.979C41.996,276.031,39.237,277.718,36.342,277.718z"/>
	<path style="fill:#E8B182;" d="M424.678,184.617v120.775c0,86.426-61.828,158.413-143.67,174.148   c-10.899,2.1-22.168,3.197-33.688,3.197c-97.947,0-177.345-79.398-177.345-177.345V184.617   c0-97.946,79.398-177.358,177.345-177.358c11.52,0,22.789,1.097,33.688,3.197c35.472,6.817,67.178,24.203,91.724,48.749   C404.822,91.308,424.678,135.644,424.678,184.617z"/>
	<path style="fill:#FFD0A6;" d="M424.678,184.617v120.775c0,86.426-61.828,158.413-143.67,174.148   c-81.842-15.735-143.67-87.721-143.67-174.148V184.617c0-86.426,61.828-158.426,143.67-174.161   c35.472,6.817,67.178,24.203,91.724,48.749C404.822,91.308,424.678,135.644,424.678,184.617z"/>
	<path style="fill:#5B5B68;" d="M424.68,184.617v26.184c-209.963-0.264-279.757-86.136-279.757-86.136   c0,35.67-35.67,73.308-74.946,86.136v-26.184c0-97.946,79.398-177.358,177.345-177.358c11.52,0,22.789,1.097,33.688,3.197   c35.472,6.817,67.178,24.203,91.724,48.749C404.824,91.308,424.68,135.644,424.68,184.617z"/>
	<path style="fill:#40404C;" d="M281.004,10.457c-62.713,12.062-113.667,57.151-134.079,116.455   c-1.361-1.44-2.008-2.246-2.008-2.246c0,35.67-35.67,73.308-74.946,86.136v-26.184c0-97.946,79.398-177.358,177.345-177.358   C258.836,7.259,270.105,8.356,281.004,10.457z"/>
	<g>
		<g>
			<path style="fill:#40404C;" d="M170.064,283.065c-4.142,0-7.5-3.358-7.5-7.5v-33.594c0-4.142,3.358-7.5,7.5-7.5     s7.5,3.358,7.5,7.5v33.594C177.564,279.707,174.206,283.065,170.064,283.065z"/>
			<path style="fill:#40404C;" d="M324.59,283.065c-4.142,0-7.5-3.358-7.5-7.5v-33.594c0-4.142,3.358-7.5,7.5-7.5s7.5,3.358,7.5,7.5     v33.594C332.09,279.707,328.732,283.065,324.59,283.065z"/>
		</g>
	</g>
	<path style="fill:#D11C1C;" d="M290.273,389.871c-1.919,0-3.839-0.732-5.303-2.197c-20.916-20.916-54.948-20.917-75.865,0   c-2.929,2.929-7.678,2.929-10.606,0c-2.929-2.929-2.929-7.678,0-10.606c26.764-26.764,70.313-26.765,97.078,0   c2.929,2.929,2.929,7.678,0,10.606C294.112,389.139,292.192,389.871,290.273,389.871z"/>
	<path style="fill:#F95C5C;" d="M383.14,266.097c-3.125,0-6.018-2.03-7.059-4.977c-1.056-2.991-0.1-6.453,2.413-8.413   c2.482-1.936,5.985-2.14,8.652-0.448c2.643,1.677,3.996,4.917,3.304,7.977C389.687,263.613,386.614,266.097,383.14,266.097z"/>
	<path style="fill:#F95C5C;" d="M177.24,203.547c-6.604,0-9.97-8.34-5.189-12.916c2.172-2.079,5.48-2.658,8.227-1.439   c2.98,1.324,4.816,4.538,4.403,7.783C184.212,200.665,180.973,203.547,177.24,203.547z"/>
	<path style="fill:#F95C5C;" d="M105.56,313.007c-6.79,0-10.069-8.778-4.866-13.201c5.238-4.452,13.413,0.211,12.256,6.987   C112.343,310.343,109.158,313.007,105.56,313.007z"/>
	<path style="fill:#F95C5C;" d="M191.57,350.797c-6.868,0-10.095-8.941-4.755-13.294c2.541-2.071,6.195-2.244,8.925-0.436   c2.605,1.725,3.87,5.031,3.107,8.058C198.016,348.426,194.97,350.797,191.57,350.797z"/>
	<path style="fill:#F95C5C;" d="M282.79,268.697c-6.857,0-10.096-8.935-4.752-13.294c5.148-4.199,12.977,0.137,12.193,6.717   C289.79,265.834,286.52,268.697,282.79,268.697z"/>
	<path style="fill:#F95C5C;" d="M228.06,303.887c-6.74,0-10.016-8.623-4.98-13.103c2.418-2.152,6.058-2.488,8.837-0.832   c2.577,1.536,3.994,4.57,3.563,7.533C234.951,301.114,231.724,303.887,228.06,303.887z"/>
	<path style="fill:#F95C5C;" d="M130.32,235.467c-6.801,0-10.062-8.782-4.866-13.201c5.323-4.526,13.655,0.382,12.203,7.245   C136.931,232.946,133.836,235.467,130.32,235.467z"/>
	<path style="fill:#F95C5C;" d="M336.22,415.957c-6.778,0-10.073-8.777-4.865-13.201c5.277-4.483,13.622,0.325,12.225,7.171   C342.872,413.393,339.765,415.957,336.22,415.957z"/>
	<path style="fill:#F95C5C;" d="M183.75,442.017c-6.792,0-10.059-8.743-4.892-13.171c5.103-4.374,13.131-0.084,12.334,6.594   C190.748,439.155,187.481,442.017,183.75,442.017z"/>
	<path style="fill:#F95C5C;" d="M265.2,450.487c-3.276,0-6.211-2.198-7.169-5.319c-0.939-3.06,0.238-6.47,2.857-8.306   c5.558-3.895,13.25,1.353,11.583,7.952C271.64,448.109,268.604,450.487,265.2,450.487z"/>
	<path style="fill:#F95C5C;" d="M131.63,387.287c-3.141,0-6.001-2.021-7.059-4.971c-1.071-2.985-0.094-6.456,2.412-8.416   c5.426-4.242,13.506,0.777,11.956,7.536C138.165,384.811,135.109,387.287,131.63,387.287z"/>
	<path style="fill:#F95C5C;" d="M332.32,339.067c-7.037,0-10.185-9.308-4.472-13.519c5.435-4.006,13.2,0.966,11.8,7.567   C338.921,336.541,335.829,339.067,332.32,339.067z"/>
</g>















</svg>
