<svg id="Capa_1" enable-background="new 0 0 512 512" height="512" viewBox="0 0 512 512" width="512" xmlns="http://www.w3.org/2000/svg"><g><path d="m447.48 20.81v470.38c0 11.49-9.32 20.81-20.81 20.81h-341.34c-11.49 0-20.81-9.32-20.81-20.81v-470.38c0-11.49 9.32-20.81 20.81-20.81h66.6l104.07 29.57 104.07-29.57h66.6c11.49 0 20.81 9.32 20.81 20.81z" fill="#eaac9d"/><path d="m426.667 0h-19.772c11.495 0 20.813 9.318 20.813 20.813v470.374c0 11.495-9.318 20.813-20.813 20.813h19.772c11.495 0 20.813-9.318 20.813-20.813v-470.374c0-11.495-9.319-20.813-20.813-20.813z" fill="#df9380"/><path d="m99.902 466.316v-420.632c0-5.69 4.612-10.302 10.302-10.302h291.591c5.69 0 10.302 4.612 10.302 10.302v420.632c0 5.69-4.612 10.302-10.302 10.302h-291.591c-5.689 0-10.302-4.612-10.302-10.302z" fill="#e4f6ff"/><path d="m389.203 476.618v-441.236h12.592c5.69 0 10.302 4.612 10.302 10.302v420.632c0 5.69-4.612 10.302-10.302 10.302z" fill="#b1e4f9"/><path d="m151.935 62.439v-62.439h208.13v62.439c0 11.495-9.318 20.813-20.813 20.813h-166.504c-11.495 0-20.813-9.318-20.813-20.813z" fill="#30579d"/><path d="m339.252 0v62.439c0 11.495-9.318 20.813-20.813 20.813h20.813c11.495 0 20.813-9.318 20.813-20.813v-62.439z" fill="#26457d"/><g><path d="m243.617 169.626h-30.284v-30.284c0-5.69-4.612-10.302-10.302-10.302h-18.941c-5.69 0-10.302 4.612-10.302 10.302v30.284h-30.284c-5.69 0-10.302 4.612-10.302 10.302v18.941c0 5.69 4.612 10.302 10.302 10.302h30.284v30.284c0 5.69 4.612 10.302 10.302 10.302h18.941c5.69 0 10.302-4.612 10.302-10.302v-30.284h30.284c5.69 0 10.302-4.612 10.302-10.302v-18.941c0-5.69-4.613-10.302-10.302-10.302z" fill="#95d6a4"/></g><g><path d="m378.797 177.353h-89.496c-4.268 0-7.726-3.459-7.726-7.726s3.459-7.726 7.726-7.726h89.496c4.268 0 7.726 3.459 7.726 7.726 0 4.266-3.459 7.726-7.726 7.726z" fill="#b1e4f9"/></g><g><path d="m378.797 210.653h-89.496c-4.268 0-7.726-3.459-7.726-7.726s3.459-7.726 7.726-7.726h89.496c4.268 0 7.726 3.459 7.726 7.726s-3.459 7.726-7.726 7.726z" fill="#b1e4f9"/></g><g><path d="m378.797 244.994h-89.496c-4.268 0-7.726-3.459-7.726-7.726s3.459-7.726 7.726-7.726h89.496c4.268 0 7.726 3.459 7.726 7.726s-3.459 7.726-7.726 7.726z" fill="#b1e4f9"/></g><g><path d="m378.797 299.109h-154.016c-4.268 0-7.726-3.459-7.726-7.726s3.459-7.726 7.726-7.726h154.016c4.268 0 7.726 3.459 7.726 7.726s-3.459 7.726-7.726 7.726z" fill="#b1e4f9"/></g><g><path d="m378.797 332.409h-154.016c-4.268 0-7.726-3.459-7.726-7.726s3.459-7.726 7.726-7.726h154.016c4.268 0 7.726 3.459 7.726 7.726s-3.459 7.726-7.726 7.726z" fill="#b1e4f9"/></g><g><path d="m378.797 366.75h-154.016c-4.268 0-7.726-3.459-7.726-7.726s3.459-7.726 7.726-7.726h154.016c4.268 0 7.726 3.459 7.726 7.726s-3.459 7.726-7.726 7.726z" fill="#b1e4f9"/></g><g><path d="m378.797 401.092h-154.016c-4.268 0-7.726-3.459-7.726-7.726s3.459-7.726 7.726-7.726h154.016c4.268 0 7.726 3.459 7.726 7.726s-3.459 7.726-7.726 7.726z" fill="#b1e4f9"/></g><g><path d="m181.073 299.109h-47.87c-4.268 0-7.726-3.459-7.726-7.726s3.459-7.726 7.726-7.726h47.87c4.268 0 7.726 3.459 7.726 7.726s-3.458 7.726-7.726 7.726z" fill="#b1e4f9"/></g><g><path d="m181.073 332.409h-47.87c-4.268 0-7.726-3.459-7.726-7.726s3.459-7.726 7.726-7.726h47.87c4.268 0 7.726 3.459 7.726 7.726.001 4.267-3.458 7.726-7.726 7.726z" fill="#b1e4f9"/></g><g><path d="m181.073 366.75h-47.87c-4.268 0-7.726-3.459-7.726-7.726s3.459-7.726 7.726-7.726h47.87c4.268 0 7.726 3.459 7.726 7.726.001 4.267-3.458 7.726-7.726 7.726z" fill="#b1e4f9"/></g><g><path d="m181.073 401.092h-47.87c-4.268 0-7.726-3.459-7.726-7.726s3.459-7.726 7.726-7.726h47.87c4.268 0 7.726 3.459 7.726 7.726s-3.458 7.726-7.726 7.726z" fill="#b1e4f9"/></g><g><path d="m378.797 451.043h-41.626c-4.268 0-7.726-3.459-7.726-7.726s3.459-7.726 7.726-7.726h41.626c4.268 0 7.726 3.459 7.726 7.726s-3.459 7.726-7.726 7.726z" fill="#b1e4f9"/></g><g><path d="m318.439 49.353h-124.878c-4.268 0-7.726-3.459-7.726-7.726s3.459-7.726 7.726-7.726h124.877c4.268 0 7.726 3.459 7.726 7.726s-3.458 7.726-7.725 7.726z" fill="#26457d"/></g></g></svg>