<svg id="Capa_1" enable-background="new 0 0 512 512" height="512" viewBox="0 0 512 512" width="512" xmlns="http://www.w3.org/2000/svg"><g><g><path d="m453.723 20.81v449.56h-291.377v-449.56c0-11.486 9.313-20.81 20.81-20.81h52.034l72.844 20.81 72.845-20.81h52.034c11.497 0 20.81 9.323 20.81 20.81z" fill="#90d8f9"/></g><g><path d="m453.723 20.81v449.56h-31.966v-449.56c0-11.486-9.313-20.81-20.81-20.81h31.966c11.497 0 20.81 9.323 20.81 20.81z" fill="#6bbef6"/></g><g><path d="m453.724 491.187v-20.813h-291.383v20.813c0 11.495 9.318 20.813 20.813 20.813h249.756c11.495 0 20.814-9.318 20.814-20.813z" fill="#30579d"/></g><g><path d="m421.761 470.374v20.813c0 11.495-9.318 20.813-20.813 20.813h31.963c11.495 0 20.813-9.318 20.813-20.813v-20.813z" fill="#26457d"/></g><g><path d="m374.413 25.861 6.465-25.861h-145.691l6.465 25.861c2.316 9.265 10.641 15.765 20.192 15.765h92.377c9.551 0 17.875-6.5 20.192-15.765z" fill="#30579d"/></g><g><g><circle cx="120.715" cy="251.837" fill="#4073c8" r="62.439"/></g><g><circle cx="120.715" cy="251.837" fill="#26457d" r="20.813"/></g></g><g><path d="m339.357 184.195h-14.674v-14.674c0-5.69-4.612-10.302-10.302-10.302h-12.697c-5.69 0-10.302 4.612-10.302 10.302v14.674h-14.674c-5.69 0-10.302 4.612-10.302 10.302v12.697c0 5.69 4.612 10.302 10.302 10.302h14.674v14.674c0 5.69 4.612 10.302 10.302 10.302h12.697c5.69 0 10.302-4.612 10.302-10.302v-14.674h14.674c5.69 0 10.302-4.612 10.302-10.302v-12.697c0-5.69-4.613-10.302-10.302-10.302z" fill="#e4f6ff"/></g><g><path d="m382.959 122.355h-22.905c-4.267 0-7.726 3.459-7.726 7.726 0 4.268 3.459 7.726 7.726 7.726h15.179v85.932c0 30.169-24.544 54.713-54.713 54.713h-24.975c-30.169 0-54.713-24.544-54.713-54.713v-85.932h15.179c4.267 0 7.726-3.459 7.726-7.726 0-4.268-3.459-7.726-7.726-7.726h-22.905c-4.267 0-7.726 3.459-7.726 7.726v93.658c0 38.69 31.476 70.166 70.165 70.166h4.762v114.029c0 7.216-5.871 13.087-13.087 13.087h-62.439c-7.216 0-13.087-5.87-13.087-13.087v-31.219c0-15.736-12.803-28.539-28.539-28.539s-28.539 12.803-28.539 28.539v31.219c0 7.216-5.871 13.087-13.087 13.087s-13.087-5.87-13.087-13.087v-142.037c0-4.268-3.459-7.726-7.726-7.726s-7.726 3.459-7.726 7.726v142.038c0 15.736 12.803 28.539 28.54 28.539 15.736 0 28.539-12.803 28.539-28.539v-31.219c0-7.216 5.871-13.087 13.087-13.087s13.087 5.87 13.087 13.087v31.219c0 15.736 12.803 28.539 28.54 28.539h62.439c15.737 0 28.54-12.803 28.54-28.539v-114.03h4.761c38.689 0 70.165-31.476 70.165-70.166v-93.658c-.002-4.267-3.462-7.726-7.729-7.726z" fill="#26457d"/></g><g><path d="m359.024 154.458c-4.267 0-7.726-3.459-7.726-7.726v-33.301c0-4.268 3.459-7.726 7.726-7.726s7.726 3.459 7.726 7.726v33.301c0 4.267-3.459 7.726-7.726 7.726z" fill="#4073c8"/></g><g><path d="m257.041 154.458c-4.267 0-7.726-3.459-7.726-7.726v-33.301c0-4.268 3.459-7.726 7.726-7.726s7.726 3.459 7.726 7.726v33.301c0 4.267-3.459 7.726-7.726 7.726z" fill="#4073c8"/></g></g></svg>